<?xml version="1.0" encoding="UTF-8" standalone="no"?>
<!DOCTYPE svg PUBLIC "-//W3C//DTD SVG 1.1//EN"
 "http://www.w3.org/Graphics/SVG/1.1/DTD/svg11.dtd">
<!-- Generated by graphviz version 2.38.0 (20140413.2041)
 -->
<!-- Title: %3 Pages: 1 -->
<svg width="1090pt" height="305pt"
 viewBox="0.00 0.00 1090.00 305.00" xmlns="http://www.w3.org/2000/svg" xmlns:xlink="http://www.w3.org/1999/xlink">
<g id="graph0" class="graph" transform="scale(1 1) rotate(0) translate(4 301)">
<title>%3</title>
<polygon fill="white" stroke="none" points="-4,4 -4,-301 1086,-301 1086,4 -4,4"/>
<!-- 0 -->
<g id="node1" class="node"><title>0</title>
<ellipse fill="none" stroke="black" cx="541.5" cy="-279" rx="120.479" ry="18"/>
<text text-anchor="middle" x="541.5" y="-275.3" font-family="Times New Roman,serif" font-size="14.00">cost_ifso, value&gt;2.96609e+07</text>
</g>
<!-- 1 -->
<g id="node2" class="node"><title>1</title>
<ellipse fill="none" stroke="black" cx="386.5" cy="-192" rx="109.681" ry="18"/>
<text text-anchor="middle" x="386.5" y="-188.3" font-family="Times New Roman,serif" font-size="14.00">parity_value, value&gt;282062</text>
</g>
<!-- 0&#45;&gt;1 -->
<g id="edge1" class="edge"><title>0&#45;&gt;1</title>
<path fill="none" stroke="black" d="M511.246,-261.409C486.737,-247.969 452.032,-228.937 425.448,-214.359"/>
<polygon fill="black" stroke="black" points="426.865,-211.144 416.414,-209.404 423.499,-217.281 426.865,-211.144"/>
<text text-anchor="middle" x="484.5" y="-231.8" font-family="Times New Roman,serif" font-size="14.00">Yes</text>
</g>
<!-- 2 -->
<g id="node3" class="node"><title>2</title>
<ellipse fill="none" stroke="black" cx="644.5" cy="-192" rx="109.681" ry="18"/>
<text text-anchor="middle" x="644.5" y="-188.3" font-family="Times New Roman,serif" font-size="14.00">parity_value, value&gt;282062</text>
</g>
<!-- 0&#45;&gt;2 -->
<g id="edge2" class="edge"><title>0&#45;&gt;2</title>
<path fill="none" stroke="black" d="M561.849,-261.207C577.367,-248.401 598.93,-230.607 616.14,-216.404"/>
<polygon fill="black" stroke="black" points="618.708,-218.823 624.193,-209.758 614.252,-213.424 618.708,-218.823"/>
<text text-anchor="middle" x="608.5" y="-231.8" font-family="Times New Roman,serif" font-size="14.00">No</text>
</g>
<!-- 3 -->
<g id="node4" class="node"><title>3</title>
<ellipse fill="none" stroke="black" cx="128.5" cy="-105" rx="120.479" ry="18"/>
<text text-anchor="middle" x="128.5" y="-101.3" font-family="Times New Roman,serif" font-size="14.00">cost_ifso, value&gt;2.84509e+07</text>
</g>
<!-- 1&#45;&gt;3 -->
<g id="edge3" class="edge"><title>1&#45;&gt;3</title>
<path fill="none" stroke="black" d="M339.778,-175.607C296.396,-161.315 231.707,-140.002 185.347,-124.729"/>
<polygon fill="black" stroke="black" points="186.339,-121.371 175.746,-121.566 184.149,-128.019 186.339,-121.371"/>
<text text-anchor="middle" x="284.5" y="-144.8" font-family="Times New Roman,serif" font-size="14.00">Yes</text>
</g>
<!-- 4 -->
<g id="node5" class="node"><title>4</title>
<ellipse fill="none" stroke="black" cx="386.5" cy="-105" rx="120.479" ry="18"/>
<text text-anchor="middle" x="386.5" y="-101.3" font-family="Times New Roman,serif" font-size="14.00">cost_ifso, value&gt;2.84509e+07</text>
</g>
<!-- 1&#45;&gt;4 -->
<g id="edge4" class="edge"><title>1&#45;&gt;4</title>
<path fill="none" stroke="black" d="M386.5,-173.799C386.5,-162.163 386.5,-146.548 386.5,-133.237"/>
<polygon fill="black" stroke="black" points="390,-133.175 386.5,-123.175 383,-133.175 390,-133.175"/>
<text text-anchor="middle" x="395.5" y="-144.8" font-family="Times New Roman,serif" font-size="14.00">No</text>
</g>
<!-- 5 -->
<g id="node6" class="node"><title>5</title>
<ellipse fill="none" stroke="black" cx="644.5" cy="-105" rx="120.479" ry="18"/>
<text text-anchor="middle" x="644.5" y="-101.3" font-family="Times New Roman,serif" font-size="14.00">cost_ifso, value&gt;2.84509e+07</text>
</g>
<!-- 2&#45;&gt;5 -->
<g id="edge5" class="edge"><title>2&#45;&gt;5</title>
<path fill="none" stroke="black" d="M644.5,-173.799C644.5,-162.163 644.5,-146.548 644.5,-133.237"/>
<polygon fill="black" stroke="black" points="648,-133.175 644.5,-123.175 641,-133.175 648,-133.175"/>
<text text-anchor="middle" x="655.5" y="-144.8" font-family="Times New Roman,serif" font-size="14.00">Yes</text>
</g>
<!-- 6 -->
<g id="node7" class="node"><title>6</title>
<ellipse fill="none" stroke="black" cx="902.5" cy="-105" rx="120.479" ry="18"/>
<text text-anchor="middle" x="902.5" y="-101.3" font-family="Times New Roman,serif" font-size="14.00">cost_ifso, value&gt;2.84509e+07</text>
</g>
<!-- 2&#45;&gt;6 -->
<g id="edge6" class="edge"><title>2&#45;&gt;6</title>
<path fill="none" stroke="black" d="M691.222,-175.607C734.604,-161.315 799.293,-140.002 845.653,-124.729"/>
<polygon fill="black" stroke="black" points="846.851,-128.019 855.254,-121.566 844.661,-121.371 846.851,-128.019"/>
<text text-anchor="middle" x="798.5" y="-144.8" font-family="Times New Roman,serif" font-size="14.00">No</text>
</g>
<!-- 7 -->
<g id="node8" class="node"><title>7</title>
<polygon fill="none" stroke="red" points="113,-36 0,-36 0,-0 113,-0 113,-36"/>
<text text-anchor="middle" x="56.5" y="-14.3" font-family="Times New Roman,serif" font-size="14.00">val = 316940.624</text>
</g>
<!-- 3&#45;&gt;7 -->
<g id="edge7" class="edge"><title>3&#45;&gt;7</title>
<path fill="none" stroke="black" d="M113.93,-86.799C103.487,-74.4713 89.2631,-57.6787 77.5835,-43.8902"/>
<polygon fill="black" stroke="black" points="80.1828,-41.5437 71.0486,-36.1754 74.8414,-46.0681 80.1828,-41.5437"/>
<text text-anchor="middle" x="108.5" y="-57.8" font-family="Times New Roman,serif" font-size="14.00">Yes</text>
</g>
<!-- 8 -->
<g id="node9" class="node"><title>8</title>
<polygon fill="none" stroke="red" points="244,-36 131,-36 131,-0 244,-0 244,-36"/>
<text text-anchor="middle" x="187.5" y="-14.3" font-family="Times New Roman,serif" font-size="14.00">val = 319676.094</text>
</g>
<!-- 3&#45;&gt;8 -->
<g id="edge8" class="edge"><title>3&#45;&gt;8</title>
<path fill="none" stroke="black" d="M140.44,-86.799C148.836,-74.7017 160.218,-58.3049 169.684,-44.6665"/>
<polygon fill="black" stroke="black" points="172.751,-46.3862 175.578,-36.1754 167.001,-42.3946 172.751,-46.3862"/>
<text text-anchor="middle" x="171.5" y="-57.8" font-family="Times New Roman,serif" font-size="14.00">No</text>
</g>
<!-- 9 -->
<g id="node10" class="node"><title>9</title>
<polygon fill="none" stroke="red" points="405,-36 292,-36 292,-0 405,-0 405,-36"/>
<text text-anchor="middle" x="348.5" y="-14.3" font-family="Times New Roman,serif" font-size="14.00">val = 319676.094</text>
</g>
<!-- 4&#45;&gt;9 -->
<g id="edge9" class="edge"><title>4&#45;&gt;9</title>
<path fill="none" stroke="black" d="M378.81,-86.799C373.505,-74.9322 366.35,-58.9279 360.324,-45.4488"/>
<polygon fill="black" stroke="black" points="363.455,-43.8762 356.178,-36.1754 357.065,-46.7332 363.455,-43.8762"/>
<text text-anchor="middle" x="381.5" y="-57.8" font-family="Times New Roman,serif" font-size="14.00">Yes</text>
</g>
<!-- 10 -->
<g id="node11" class="node"><title>10</title>
<polygon fill="none" stroke="red" points="536,-36 423,-36 423,-0 536,-0 536,-36"/>
<text text-anchor="middle" x="479.5" y="-14.3" font-family="Times New Roman,serif" font-size="14.00">val = 319676.094</text>
</g>
<!-- 4&#45;&gt;10 -->
<g id="edge10" class="edge"><title>4&#45;&gt;10</title>
<path fill="none" stroke="black" d="M404.874,-87.2067C418.668,-74.5994 437.751,-57.1579 453.166,-43.0683"/>
<polygon fill="black" stroke="black" points="455.826,-45.3793 460.846,-36.0493 451.103,-40.2123 455.826,-45.3793"/>
<text text-anchor="middle" x="448.5" y="-57.8" font-family="Times New Roman,serif" font-size="14.00">No</text>
</g>
<!-- 11 -->
<g id="node12" class="node"><title>11</title>
<polygon fill="none" stroke="red" points="682,-36 569,-36 569,-0 682,-0 682,-36"/>
<text text-anchor="middle" x="625.5" y="-14.3" font-family="Times New Roman,serif" font-size="14.00">val = 307144.910</text>
</g>
<!-- 5&#45;&gt;11 -->
<g id="edge11" class="edge"><title>5&#45;&gt;11</title>
<path fill="none" stroke="black" d="M640.655,-86.799C638.054,-75.1626 634.564,-59.5479 631.588,-46.2368"/>
<polygon fill="black" stroke="black" points="634.936,-45.1711 629.339,-36.1754 628.105,-46.6981 634.936,-45.1711"/>
<text text-anchor="middle" x="647.5" y="-57.8" font-family="Times New Roman,serif" font-size="14.00">Yes</text>
</g>
<!-- 12 -->
<g id="node13" class="node"><title>12</title>
<polygon fill="none" stroke="red" points="813,-36 700,-36 700,-0 813,-0 813,-36"/>
<text text-anchor="middle" x="756.5" y="-14.3" font-family="Times New Roman,serif" font-size="14.00">val = 334741.884</text>
</g>
<!-- 5&#45;&gt;12 -->
<g id="edge12" class="edge"><title>5&#45;&gt;12</title>
<path fill="none" stroke="black" d="M666.628,-87.2067C683.621,-74.3103 707.279,-56.3553 726.057,-42.1043"/>
<polygon fill="black" stroke="black" points="728.185,-44.8828 734.035,-36.0493 723.953,-39.3068 728.185,-44.8828"/>
<text text-anchor="middle" x="716.5" y="-57.8" font-family="Times New Roman,serif" font-size="14.00">No</text>
</g>
<!-- 13 -->
<g id="node14" class="node"><title>13</title>
<polygon fill="none" stroke="red" points="951,-36 838,-36 838,-0 951,-0 951,-36"/>
<text text-anchor="middle" x="894.5" y="-14.3" font-family="Times New Roman,serif" font-size="14.00">val = 305440.229</text>
</g>
<!-- 6&#45;&gt;13 -->
<g id="edge13" class="edge"><title>6&#45;&gt;13</title>
<path fill="none" stroke="black" d="M900.881,-86.799C899.786,-75.1626 898.316,-59.5479 897.063,-46.2368"/>
<polygon fill="black" stroke="black" points="900.538,-45.8034 896.117,-36.1754 893.569,-46.4594 900.538,-45.8034"/>
<text text-anchor="middle" x="910.5" y="-57.8" font-family="Times New Roman,serif" font-size="14.00">Yes</text>
</g>
<!-- 14 -->
<g id="node15" class="node"><title>14</title>
<polygon fill="none" stroke="red" points="1082,-36 969,-36 969,-0 1082,-0 1082,-36"/>
<text text-anchor="middle" x="1025.5" y="-14.3" font-family="Times New Roman,serif" font-size="14.00">val = 304351.313</text>
</g>
<!-- 6&#45;&gt;14 -->
<g id="edge14" class="edge"><title>6&#45;&gt;14</title>
<path fill="none" stroke="black" d="M926.801,-87.2067C945.546,-74.2524 971.678,-56.1941 992.344,-41.9128"/>
<polygon fill="black" stroke="black" points="994.592,-44.6139 1000.83,-36.0493 990.612,-38.8551 994.592,-44.6139"/>
<text text-anchor="middle" x="980.5" y="-57.8" font-family="Times New Roman,serif" font-size="14.00">No</text>
</g>
</g>
</svg>
