<?xml version="1.0" encoding="UTF-8" standalone="no"?>
<!DOCTYPE svg PUBLIC "-//W3C//DTD SVG 1.1//EN"
 "http://www.w3.org/Graphics/SVG/1.1/DTD/svg11.dtd">
<!-- Generated by graphviz version 2.38.0 (20140413.2041)
 -->
<!-- Title: %3 Pages: 1 -->
<svg width="4182pt" height="479pt"
 viewBox="0.00 0.00 4182.00 479.00" xmlns="http://www.w3.org/2000/svg" xmlns:xlink="http://www.w3.org/1999/xlink">
<g id="graph0" class="graph" transform="scale(1 1) rotate(0) translate(4 475)">
<title>%3</title>
<polygon fill="white" stroke="none" points="-4,4 -4,-475 4178,-475 4178,4 -4,4"/>
<!-- 0 -->
<g id="node1" class="node"><title>0</title>
<ellipse fill="none" stroke="black" cx="2212.5" cy="-453" rx="556.201" ry="18"/>
<text text-anchor="middle" x="2212.5" y="-449.3" font-family="Times New Roman,serif" font-size="14.00">{CRM_client_industry, parity_value border=338441, cost_ifso border=2.63544e+07, cost_ifso border=3.00877e+07} pr_num1 tb0 type0, border=15</text>
</g>
<!-- 1 -->
<g id="node2" class="node"><title>1</title>
<ellipse fill="none" stroke="black" cx="1726.5" cy="-366" rx="120.479" ry="18"/>
<text text-anchor="middle" x="1726.5" y="-362.3" font-family="Times New Roman,serif" font-size="14.00">cost_ifso, value&gt;3.00877e+07</text>
</g>
<!-- 0&#45;&gt;1 -->
<g id="edge1" class="edge"><title>0&#45;&gt;1</title>
<path fill="none" stroke="black" d="M2116.77,-435.257C2027.79,-419.695 1896.52,-396.736 1811.25,-381.822"/>
<polygon fill="black" stroke="black" points="1811.8,-378.365 1801.34,-380.09 1810.59,-385.26 1811.8,-378.365"/>
<text text-anchor="middle" x="2010.5" y="-405.8" font-family="Times New Roman,serif" font-size="14.00">Yes</text>
</g>
<!-- 2 -->
<g id="node3" class="node"><title>2</title>
<ellipse fill="none" stroke="black" cx="2513.5" cy="-366" rx="120.479" ry="18"/>
<text text-anchor="middle" x="2513.5" y="-362.3" font-family="Times New Roman,serif" font-size="14.00">cost_ifso, value&gt;3.00877e+07</text>
</g>
<!-- 0&#45;&gt;2 -->
<g id="edge2" class="edge"><title>0&#45;&gt;2</title>
<path fill="none" stroke="black" d="M2272.69,-435.003C2323.94,-420.53 2397.37,-399.794 2449.65,-385.032"/>
<polygon fill="black" stroke="black" points="2450.81,-388.341 2459.48,-382.255 2448.9,-381.605 2450.81,-388.341"/>
<text text-anchor="middle" x="2390.5" y="-405.8" font-family="Times New Roman,serif" font-size="14.00">No</text>
</g>
<!-- 3 -->
<g id="node4" class="node"><title>3</title>
<ellipse fill="none" stroke="black" cx="925.5" cy="-279" rx="383.432" ry="18"/>
<text text-anchor="middle" x="925.5" y="-275.3" font-family="Times New Roman,serif" font-size="14.00">{country, parity_value border=338441, cost_ifso border=2.63544e+07} pr_num1 tb0 type0, border=2</text>
</g>
<!-- 1&#45;&gt;3 -->
<g id="edge3" class="edge"><title>1&#45;&gt;3</title>
<path fill="none" stroke="black" d="M1631.47,-354.916C1496.2,-340.561 1246.47,-314.06 1083.2,-296.735"/>
<polygon fill="black" stroke="black" points="1083.38,-293.234 1073.06,-295.659 1082.64,-300.195 1083.38,-293.234"/>
<text text-anchor="middle" x="1385.5" y="-318.8" font-family="Times New Roman,serif" font-size="14.00">Yes</text>
</g>
<!-- 4 -->
<g id="node5" class="node"><title>4</title>
<ellipse fill="none" stroke="black" cx="1726.5" cy="-279" rx="383.432" ry="18"/>
<text text-anchor="middle" x="1726.5" y="-275.3" font-family="Times New Roman,serif" font-size="14.00">{country, parity_value border=338441, cost_ifso border=2.63544e+07} pr_num1 tb0 type0, border=2</text>
</g>
<!-- 1&#45;&gt;4 -->
<g id="edge4" class="edge"><title>1&#45;&gt;4</title>
<path fill="none" stroke="black" d="M1726.5,-347.799C1726.5,-336.163 1726.5,-320.548 1726.5,-307.237"/>
<polygon fill="black" stroke="black" points="1730,-307.175 1726.5,-297.175 1723,-307.175 1730,-307.175"/>
<text text-anchor="middle" x="1735.5" y="-318.8" font-family="Times New Roman,serif" font-size="14.00">No</text>
</g>
<!-- 5 -->
<g id="node6" class="node"><title>5</title>
<ellipse fill="none" stroke="black" cx="2513.5" cy="-279" rx="383.432" ry="18"/>
<text text-anchor="middle" x="2513.5" y="-275.3" font-family="Times New Roman,serif" font-size="14.00">{country, parity_value border=338441, cost_ifso border=2.63544e+07} pr_num1 tb0 type0, border=2</text>
</g>
<!-- 2&#45;&gt;5 -->
<g id="edge5" class="edge"><title>2&#45;&gt;5</title>
<path fill="none" stroke="black" d="M2513.5,-347.799C2513.5,-336.163 2513.5,-320.548 2513.5,-307.237"/>
<polygon fill="black" stroke="black" points="2517,-307.175 2513.5,-297.175 2510,-307.175 2517,-307.175"/>
<text text-anchor="middle" x="2524.5" y="-318.8" font-family="Times New Roman,serif" font-size="14.00">Yes</text>
</g>
<!-- 6 -->
<g id="node7" class="node"><title>6</title>
<ellipse fill="none" stroke="black" cx="3348.5" cy="-279" rx="383.432" ry="18"/>
<text text-anchor="middle" x="3348.5" y="-275.3" font-family="Times New Roman,serif" font-size="14.00">{country, parity_value border=338441, cost_ifso border=2.63544e+07} pr_num1 tb0 type0, border=2</text>
</g>
<!-- 2&#45;&gt;6 -->
<g id="edge6" class="edge"><title>2&#45;&gt;6</title>
<path fill="none" stroke="black" d="M2610.1,-355.166C2751,-340.823 3014.69,-313.981 3185.84,-296.558"/>
<polygon fill="black" stroke="black" points="3186.36,-300.023 3195.95,-295.529 3185.65,-293.059 3186.36,-300.023"/>
<text text-anchor="middle" x="2990.5" y="-318.8" font-family="Times New Roman,serif" font-size="14.00">No</text>
</g>
<!-- 7 -->
<g id="node8" class="node"><title>7</title>
<ellipse fill="none" stroke="black" cx="437.5" cy="-192" rx="120.479" ry="18"/>
<text text-anchor="middle" x="437.5" y="-188.3" font-family="Times New Roman,serif" font-size="14.00">cost_ifso, value&gt;2.63544e+07</text>
</g>
<!-- 3&#45;&gt;7 -->
<g id="edge7" class="edge"><title>3&#45;&gt;7</title>
<path fill="none" stroke="black" d="M830.83,-261.51C741.513,-245.953 608.82,-222.841 522.731,-207.845"/>
<polygon fill="black" stroke="black" points="523.182,-204.371 512.729,-206.103 521.981,-211.268 523.182,-204.371"/>
<text text-anchor="middle" x="722.5" y="-231.8" font-family="Times New Roman,serif" font-size="14.00">Yes</text>
</g>
<!-- 8 -->
<g id="node9" class="node"><title>8</title>
<ellipse fill="none" stroke="black" cx="925.5" cy="-192" rx="120.479" ry="18"/>
<text text-anchor="middle" x="925.5" y="-188.3" font-family="Times New Roman,serif" font-size="14.00">cost_ifso, value&gt;2.63544e+07</text>
</g>
<!-- 3&#45;&gt;8 -->
<g id="edge8" class="edge"><title>3&#45;&gt;8</title>
<path fill="none" stroke="black" d="M925.5,-260.799C925.5,-249.163 925.5,-233.548 925.5,-220.237"/>
<polygon fill="black" stroke="black" points="929,-220.175 925.5,-210.175 922,-220.175 929,-220.175"/>
<text text-anchor="middle" x="934.5" y="-231.8" font-family="Times New Roman,serif" font-size="14.00">No</text>
</g>
<!-- 9 -->
<g id="node10" class="node"><title>9</title>
<ellipse fill="none" stroke="black" cx="1472.5" cy="-192" rx="120.479" ry="18"/>
<text text-anchor="middle" x="1472.5" y="-188.3" font-family="Times New Roman,serif" font-size="14.00">cost_ifso, value&gt;2.63544e+07</text>
</g>
<!-- 4&#45;&gt;9 -->
<g id="edge9" class="edge"><title>4&#45;&gt;9</title>
<path fill="none" stroke="black" d="M1676.01,-261.105C1633.65,-246.927 1573.16,-226.687 1529.15,-211.958"/>
<polygon fill="black" stroke="black" points="1530.06,-208.57 1519.46,-208.716 1527.83,-215.208 1530.06,-208.57"/>
<text text-anchor="middle" x="1626.5" y="-231.8" font-family="Times New Roman,serif" font-size="14.00">Yes</text>
</g>
<!-- 10 -->
<g id="node11" class="node"><title>10</title>
<ellipse fill="none" stroke="black" cx="1730.5" cy="-192" rx="120.479" ry="18"/>
<text text-anchor="middle" x="1730.5" y="-188.3" font-family="Times New Roman,serif" font-size="14.00">cost_ifso, value&gt;2.63544e+07</text>
</g>
<!-- 4&#45;&gt;10 -->
<g id="edge10" class="edge"><title>4&#45;&gt;10</title>
<path fill="none" stroke="black" d="M1727.31,-260.799C1727.86,-249.163 1728.59,-233.548 1729.22,-220.237"/>
<polygon fill="black" stroke="black" points="1732.72,-220.329 1729.69,-210.175 1725.73,-220 1732.72,-220.329"/>
<text text-anchor="middle" x="1738.5" y="-231.8" font-family="Times New Roman,serif" font-size="14.00">No</text>
</g>
<!-- 11 -->
<g id="node12" class="node"><title>11</title>
<ellipse fill="none" stroke="black" cx="2506.5" cy="-192" rx="120.479" ry="18"/>
<text text-anchor="middle" x="2506.5" y="-188.3" font-family="Times New Roman,serif" font-size="14.00">cost_ifso, value&gt;2.63544e+07</text>
</g>
<!-- 5&#45;&gt;11 -->
<g id="edge11" class="edge"><title>5&#45;&gt;11</title>
<path fill="none" stroke="black" d="M2512.08,-260.799C2511.13,-249.163 2509.84,-233.548 2508.74,-220.237"/>
<polygon fill="black" stroke="black" points="2512.22,-219.854 2507.91,-210.175 2505.25,-220.429 2512.22,-219.854"/>
<text text-anchor="middle" x="2521.5" y="-231.8" font-family="Times New Roman,serif" font-size="14.00">Yes</text>
</g>
<!-- 12 -->
<g id="node13" class="node"><title>12</title>
<ellipse fill="none" stroke="black" cx="2764.5" cy="-192" rx="120.479" ry="18"/>
<text text-anchor="middle" x="2764.5" y="-188.3" font-family="Times New Roman,serif" font-size="14.00">cost_ifso, value&gt;2.63544e+07</text>
</g>
<!-- 5&#45;&gt;12 -->
<g id="edge12" class="edge"><title>5&#45;&gt;12</title>
<path fill="none" stroke="black" d="M2563.39,-261.105C2605.26,-246.927 2665.03,-226.687 2708.52,-211.958"/>
<polygon fill="black" stroke="black" points="2709.74,-215.238 2718.09,-208.716 2707.5,-208.608 2709.74,-215.238"/>
<text text-anchor="middle" x="2663.5" y="-231.8" font-family="Times New Roman,serif" font-size="14.00">No</text>
</g>
<!-- 13 -->
<g id="node14" class="node"><title>13</title>
<ellipse fill="none" stroke="black" cx="3348.5" cy="-192" rx="120.479" ry="18"/>
<text text-anchor="middle" x="3348.5" y="-188.3" font-family="Times New Roman,serif" font-size="14.00">cost_ifso, value&gt;2.63544e+07</text>
</g>
<!-- 6&#45;&gt;13 -->
<g id="edge13" class="edge"><title>6&#45;&gt;13</title>
<path fill="none" stroke="black" d="M3348.5,-260.799C3348.5,-249.163 3348.5,-233.548 3348.5,-220.237"/>
<polygon fill="black" stroke="black" points="3352,-220.175 3348.5,-210.175 3345,-220.175 3352,-220.175"/>
<text text-anchor="middle" x="3359.5" y="-231.8" font-family="Times New Roman,serif" font-size="14.00">Yes</text>
</g>
<!-- 14 -->
<g id="node15" class="node"><title>14</title>
<ellipse fill="none" stroke="black" cx="3725.5" cy="-192" rx="120.479" ry="18"/>
<text text-anchor="middle" x="3725.5" y="-188.3" font-family="Times New Roman,serif" font-size="14.00">cost_ifso, value&gt;2.63544e+07</text>
</g>
<!-- 6&#45;&gt;14 -->
<g id="edge14" class="edge"><title>6&#45;&gt;14</title>
<path fill="none" stroke="black" d="M3422.53,-261.308C3488.92,-246.339 3585.81,-224.496 3652.03,-209.566"/>
<polygon fill="black" stroke="black" points="3652.99,-212.937 3661.97,-207.323 3651.45,-206.108 3652.99,-212.937"/>
<text text-anchor="middle" x="3569.5" y="-231.8" font-family="Times New Roman,serif" font-size="14.00">No</text>
</g>
<!-- 15 -->
<g id="node16" class="node"><title>15</title>
<ellipse fill="none" stroke="black" cx="187.5" cy="-105" rx="109.681" ry="18"/>
<text text-anchor="middle" x="187.5" y="-101.3" font-family="Times New Roman,serif" font-size="14.00">parity_value, value&gt;338441</text>
</g>
<!-- 7&#45;&gt;15 -->
<g id="edge15" class="edge"><title>7&#45;&gt;15</title>
<path fill="none" stroke="black" d="M391.355,-175.311C349.294,-161.01 287.099,-139.864 242.478,-124.692"/>
<polygon fill="black" stroke="black" points="243.549,-121.36 232.954,-121.454 241.295,-127.987 243.549,-121.36"/>
<text text-anchor="middle" x="338.5" y="-144.8" font-family="Times New Roman,serif" font-size="14.00">Yes</text>
</g>
<!-- 16 -->
<g id="node17" class="node"><title>16</title>
<ellipse fill="none" stroke="black" cx="437.5" cy="-105" rx="109.681" ry="18"/>
<text text-anchor="middle" x="437.5" y="-101.3" font-family="Times New Roman,serif" font-size="14.00">parity_value, value&gt;338441</text>
</g>
<!-- 7&#45;&gt;16 -->
<g id="edge16" class="edge"><title>7&#45;&gt;16</title>
<path fill="none" stroke="black" d="M437.5,-173.799C437.5,-162.163 437.5,-146.548 437.5,-133.237"/>
<polygon fill="black" stroke="black" points="441,-133.175 437.5,-123.175 434,-133.175 441,-133.175"/>
<text text-anchor="middle" x="446.5" y="-144.8" font-family="Times New Roman,serif" font-size="14.00">No</text>
</g>
<!-- 17 -->
<g id="node18" class="node"><title>17</title>
<ellipse fill="none" stroke="black" cx="692.5" cy="-105" rx="109.681" ry="18"/>
<text text-anchor="middle" x="692.5" y="-101.3" font-family="Times New Roman,serif" font-size="14.00">parity_value, value&gt;338441</text>
</g>
<!-- 8&#45;&gt;17 -->
<g id="edge17" class="edge"><title>8&#45;&gt;17</title>
<path fill="none" stroke="black" d="M881.948,-175.112C843.171,-160.966 786.352,-140.238 745.059,-125.174"/>
<polygon fill="black" stroke="black" points="746.039,-121.806 735.445,-121.667 743.64,-128.382 746.039,-121.806"/>
<text text-anchor="middle" x="834.5" y="-144.8" font-family="Times New Roman,serif" font-size="14.00">Yes</text>
</g>
<!-- 18 -->
<g id="node19" class="node"><title>18</title>
<ellipse fill="none" stroke="black" cx="930.5" cy="-105" rx="109.681" ry="18"/>
<text text-anchor="middle" x="930.5" y="-101.3" font-family="Times New Roman,serif" font-size="14.00">parity_value, value&gt;338441</text>
</g>
<!-- 8&#45;&gt;18 -->
<g id="edge18" class="edge"><title>8&#45;&gt;18</title>
<path fill="none" stroke="black" d="M926.512,-173.799C927.196,-162.163 928.115,-146.548 928.898,-133.237"/>
<polygon fill="black" stroke="black" points="932.396,-133.364 929.49,-123.175 925.408,-132.953 932.396,-133.364"/>
<text text-anchor="middle" x="937.5" y="-144.8" font-family="Times New Roman,serif" font-size="14.00">No</text>
</g>
<!-- 19 -->
<g id="node20" class="node"><title>19</title>
<ellipse fill="none" stroke="black" cx="1235.5" cy="-105" rx="109.681" ry="18"/>
<text text-anchor="middle" x="1235.5" y="-101.3" font-family="Times New Roman,serif" font-size="14.00">parity_value, value&gt;338441</text>
</g>
<!-- 9&#45;&gt;19 -->
<g id="edge19" class="edge"><title>9&#45;&gt;19</title>
<path fill="none" stroke="black" d="M1428.48,-175.211C1388.86,-161.003 1330.57,-140.096 1288.42,-124.981"/>
<polygon fill="black" stroke="black" points="1289.48,-121.642 1278.89,-121.561 1287.12,-128.231 1289.48,-121.642"/>
<text text-anchor="middle" x="1379.5" y="-144.8" font-family="Times New Roman,serif" font-size="14.00">Yes</text>
</g>
<!-- 20 -->
<g id="node21" class="node"><title>20</title>
<ellipse fill="none" stroke="black" cx="1473.5" cy="-105" rx="109.681" ry="18"/>
<text text-anchor="middle" x="1473.5" y="-101.3" font-family="Times New Roman,serif" font-size="14.00">parity_value, value&gt;338441</text>
</g>
<!-- 9&#45;&gt;20 -->
<g id="edge20" class="edge"><title>9&#45;&gt;20</title>
<path fill="none" stroke="black" d="M1472.7,-173.799C1472.84,-162.163 1473.02,-146.548 1473.18,-133.237"/>
<polygon fill="black" stroke="black" points="1476.68,-133.216 1473.3,-123.175 1469.68,-133.134 1476.68,-133.216"/>
<text text-anchor="middle" x="1482.5" y="-144.8" font-family="Times New Roman,serif" font-size="14.00">No</text>
</g>
<!-- 21 -->
<g id="node22" class="node"><title>21</title>
<ellipse fill="none" stroke="black" cx="1716.5" cy="-105" rx="109.681" ry="18"/>
<text text-anchor="middle" x="1716.5" y="-101.3" font-family="Times New Roman,serif" font-size="14.00">parity_value, value&gt;338441</text>
</g>
<!-- 10&#45;&gt;21 -->
<g id="edge21" class="edge"><title>10&#45;&gt;21</title>
<path fill="none" stroke="black" d="M1727.67,-173.799C1725.75,-162.163 1723.18,-146.548 1720.99,-133.237"/>
<polygon fill="black" stroke="black" points="1724.41,-132.474 1719.33,-123.175 1717.5,-133.611 1724.41,-132.474"/>
<text text-anchor="middle" x="1735.5" y="-144.8" font-family="Times New Roman,serif" font-size="14.00">Yes</text>
</g>
<!-- 22 -->
<g id="node23" class="node"><title>22</title>
<ellipse fill="none" stroke="black" cx="1954.5" cy="-105" rx="109.681" ry="18"/>
<text text-anchor="middle" x="1954.5" y="-101.3" font-family="Times New Roman,serif" font-size="14.00">parity_value, value&gt;338441</text>
</g>
<!-- 10&#45;&gt;22 -->
<g id="edge22" class="edge"><title>10&#45;&gt;22</title>
<path fill="none" stroke="black" d="M1772.37,-175.112C1809.45,-161.04 1863.7,-140.455 1903.34,-125.412"/>
<polygon fill="black" stroke="black" points="1904.73,-128.63 1912.84,-121.81 1902.24,-122.086 1904.73,-128.63"/>
<text text-anchor="middle" x="1865.5" y="-144.8" font-family="Times New Roman,serif" font-size="14.00">No</text>
</g>
<!-- 23 -->
<g id="node24" class="node"><title>23</title>
<ellipse fill="none" stroke="black" cx="2280.5" cy="-105" rx="109.681" ry="18"/>
<text text-anchor="middle" x="2280.5" y="-101.3" font-family="Times New Roman,serif" font-size="14.00">parity_value, value&gt;338441</text>
</g>
<!-- 11&#45;&gt;23 -->
<g id="edge23" class="edge"><title>11&#45;&gt;23</title>
<path fill="none" stroke="black" d="M2464.26,-175.112C2426.72,-160.996 2371.76,-140.325 2331.73,-125.269"/>
<polygon fill="black" stroke="black" points="2332.75,-121.911 2322.15,-121.667 2330.28,-128.463 2332.75,-121.911"/>
<text text-anchor="middle" x="2418.5" y="-144.8" font-family="Times New Roman,serif" font-size="14.00">Yes</text>
</g>
<!-- 24 -->
<g id="node25" class="node"><title>24</title>
<ellipse fill="none" stroke="black" cx="2518.5" cy="-105" rx="109.681" ry="18"/>
<text text-anchor="middle" x="2518.5" y="-101.3" font-family="Times New Roman,serif" font-size="14.00">parity_value, value&gt;338441</text>
</g>
<!-- 11&#45;&gt;24 -->
<g id="edge24" class="edge"><title>11&#45;&gt;24</title>
<path fill="none" stroke="black" d="M2508.93,-173.799C2510.57,-162.163 2512.78,-146.548 2514.65,-133.237"/>
<polygon fill="black" stroke="black" points="2518.14,-133.567 2516.08,-123.175 2511.21,-132.588 2518.14,-133.567"/>
<text text-anchor="middle" x="2522.5" y="-144.8" font-family="Times New Roman,serif" font-size="14.00">No</text>
</g>
<!-- 25 -->
<g id="node26" class="node"><title>25</title>
<ellipse fill="none" stroke="black" cx="2759.5" cy="-105" rx="109.681" ry="18"/>
<text text-anchor="middle" x="2759.5" y="-101.3" font-family="Times New Roman,serif" font-size="14.00">parity_value, value&gt;338441</text>
</g>
<!-- 12&#45;&gt;25 -->
<g id="edge25" class="edge"><title>12&#45;&gt;25</title>
<path fill="none" stroke="black" d="M2763.49,-173.799C2762.8,-162.163 2761.89,-146.548 2761.1,-133.237"/>
<polygon fill="black" stroke="black" points="2764.59,-132.953 2760.51,-123.175 2757.6,-133.364 2764.59,-132.953"/>
<text text-anchor="middle" x="2773.5" y="-144.8" font-family="Times New Roman,serif" font-size="14.00">Yes</text>
</g>
<!-- 26 -->
<g id="node27" class="node"><title>26</title>
<ellipse fill="none" stroke="black" cx="2997.5" cy="-105" rx="109.681" ry="18"/>
<text text-anchor="middle" x="2997.5" y="-101.3" font-family="Times New Roman,serif" font-size="14.00">parity_value, value&gt;338441</text>
</g>
<!-- 12&#45;&gt;26 -->
<g id="edge26" class="edge"><title>12&#45;&gt;26</title>
<path fill="none" stroke="black" d="M2808.05,-175.112C2846.83,-160.966 2903.65,-140.238 2944.94,-125.174"/>
<polygon fill="black" stroke="black" points="2946.36,-128.382 2954.56,-121.667 2943.96,-121.806 2946.36,-128.382"/>
<text text-anchor="middle" x="2904.5" y="-144.8" font-family="Times New Roman,serif" font-size="14.00">No</text>
</g>
<!-- 27 -->
<g id="node28" class="node"><title>27</title>
<ellipse fill="none" stroke="black" cx="3244.5" cy="-105" rx="109.681" ry="18"/>
<text text-anchor="middle" x="3244.5" y="-101.3" font-family="Times New Roman,serif" font-size="14.00">parity_value, value&gt;338441</text>
</g>
<!-- 13&#45;&gt;27 -->
<g id="edge27" class="edge"><title>13&#45;&gt;27</title>
<path fill="none" stroke="black" d="M3327.95,-174.207C3312.28,-161.401 3290.51,-143.607 3273.14,-129.404"/>
<polygon fill="black" stroke="black" points="3274.96,-126.377 3265,-122.758 3270.53,-131.797 3274.96,-126.377"/>
<text text-anchor="middle" x="3314.5" y="-144.8" font-family="Times New Roman,serif" font-size="14.00">Yes</text>
</g>
<!-- 28 -->
<g id="node29" class="node"><title>28</title>
<ellipse fill="none" stroke="black" cx="3482.5" cy="-105" rx="109.681" ry="18"/>
<text text-anchor="middle" x="3482.5" y="-101.3" font-family="Times New Roman,serif" font-size="14.00">parity_value, value&gt;338441</text>
</g>
<!-- 13&#45;&gt;28 -->
<g id="edge28" class="edge"><title>13&#45;&gt;28</title>
<path fill="none" stroke="black" d="M3374.65,-174.409C3395.5,-161.187 3424.87,-142.555 3447.7,-128.074"/>
<polygon fill="black" stroke="black" points="3449.84,-130.861 3456.41,-122.549 3446.09,-124.95 3449.84,-130.861"/>
<text text-anchor="middle" x="3433.5" y="-144.8" font-family="Times New Roman,serif" font-size="14.00">No</text>
</g>
<!-- 29 -->
<g id="node30" class="node"><title>29</title>
<ellipse fill="none" stroke="black" cx="3725.5" cy="-105" rx="109.681" ry="18"/>
<text text-anchor="middle" x="3725.5" y="-101.3" font-family="Times New Roman,serif" font-size="14.00">parity_value, value&gt;338441</text>
</g>
<!-- 14&#45;&gt;29 -->
<g id="edge29" class="edge"><title>14&#45;&gt;29</title>
<path fill="none" stroke="black" d="M3725.5,-173.799C3725.5,-162.163 3725.5,-146.548 3725.5,-133.237"/>
<polygon fill="black" stroke="black" points="3729,-133.175 3725.5,-123.175 3722,-133.175 3729,-133.175"/>
<text text-anchor="middle" x="3736.5" y="-144.8" font-family="Times New Roman,serif" font-size="14.00">Yes</text>
</g>
<!-- 30 -->
<g id="node31" class="node"><title>30</title>
<ellipse fill="none" stroke="black" cx="3986.5" cy="-105" rx="109.681" ry="18"/>
<text text-anchor="middle" x="3986.5" y="-101.3" font-family="Times New Roman,serif" font-size="14.00">parity_value, value&gt;338441</text>
</g>
<!-- 14&#45;&gt;30 -->
<g id="edge30" class="edge"><title>14&#45;&gt;30</title>
<path fill="none" stroke="black" d="M3773.37,-175.41C3817.47,-161.047 3882.97,-139.718 3929.7,-124.498"/>
<polygon fill="black" stroke="black" points="3930.95,-127.773 3939.37,-121.348 3928.78,-121.117 3930.95,-127.773"/>
<text text-anchor="middle" x="3881.5" y="-144.8" font-family="Times New Roman,serif" font-size="14.00">No</text>
</g>
<!-- 31 -->
<g id="node32" class="node"><title>31</title>
<polygon fill="none" stroke="red" points="113,-36 0,-36 0,-0 113,-0 113,-36"/>
<text text-anchor="middle" x="56.5" y="-14.3" font-family="Times New Roman,serif" font-size="14.00">val = 310790.158</text>
</g>
<!-- 15&#45;&gt;31 -->
<g id="edge31" class="edge"><title>15&#45;&gt;31</title>
<path fill="none" stroke="black" d="M161.931,-87.4094C141.816,-74.3579 113.577,-56.0349 91.3868,-41.6364"/>
<polygon fill="black" stroke="black" points="93.1966,-38.6386 82.9027,-36.1315 89.3864,-44.5108 93.1966,-38.6386"/>
<text text-anchor="middle" x="141.5" y="-57.8" font-family="Times New Roman,serif" font-size="14.00">Yes</text>
</g>
<!-- 32 -->
<g id="node33" class="node"><title>32</title>
<polygon fill="none" stroke="red" points="244,-36 131,-36 131,-0 244,-0 244,-36"/>
<text text-anchor="middle" x="187.5" y="-14.3" font-family="Times New Roman,serif" font-size="14.00">val = 310943.308</text>
</g>
<!-- 15&#45;&gt;32 -->
<g id="edge32" class="edge"><title>15&#45;&gt;32</title>
<path fill="none" stroke="black" d="M187.5,-86.799C187.5,-75.1626 187.5,-59.5479 187.5,-46.2368"/>
<polygon fill="black" stroke="black" points="191,-46.1754 187.5,-36.1754 184,-46.1755 191,-46.1754"/>
<text text-anchor="middle" x="196.5" y="-57.8" font-family="Times New Roman,serif" font-size="14.00">No</text>
</g>
<!-- 33 -->
<g id="node34" class="node"><title>33</title>
<polygon fill="none" stroke="red" points="375,-36 262,-36 262,-0 375,-0 375,-36"/>
<text text-anchor="middle" x="318.5" y="-14.3" font-family="Times New Roman,serif" font-size="14.00">val = 310322.688</text>
</g>
<!-- 16&#45;&gt;33 -->
<g id="edge33" class="edge"><title>16&#45;&gt;33</title>
<path fill="none" stroke="black" d="M413.989,-87.2067C395.853,-74.2524 370.572,-56.1941 350.578,-41.9128"/>
<polygon fill="black" stroke="black" points="352.541,-39.0137 342.369,-36.0493 348.472,-44.7098 352.541,-39.0137"/>
<text text-anchor="middle" x="396.5" y="-57.8" font-family="Times New Roman,serif" font-size="14.00">Yes</text>
</g>
<!-- 34 -->
<g id="node35" class="node"><title>34</title>
<polygon fill="none" stroke="red" points="506,-36 393,-36 393,-0 506,-0 506,-36"/>
<text text-anchor="middle" x="449.5" y="-14.3" font-family="Times New Roman,serif" font-size="14.00">val = 310322.688</text>
</g>
<!-- 16&#45;&gt;34 -->
<g id="edge34" class="edge"><title>16&#45;&gt;34</title>
<path fill="none" stroke="black" d="M439.928,-86.799C441.571,-75.1626 443.776,-59.5479 445.655,-46.2368"/>
<polygon fill="black" stroke="black" points="449.143,-46.5665 447.075,-36.1754 442.212,-45.588 449.143,-46.5665"/>
<text text-anchor="middle" x="453.5" y="-57.8" font-family="Times New Roman,serif" font-size="14.00">No</text>
</g>
<!-- 35 -->
<g id="node36" class="node"><title>35</title>
<polygon fill="none" stroke="red" points="637,-36 524,-36 524,-0 637,-0 637,-36"/>
<text text-anchor="middle" x="580.5" y="-14.3" font-family="Times New Roman,serif" font-size="14.00">val = 310322.688</text>
</g>
<!-- 17&#45;&gt;35 -->
<g id="edge35" class="edge"><title>17&#45;&gt;35</title>
<path fill="none" stroke="black" d="M670.372,-87.2067C653.379,-74.3103 629.721,-56.3553 610.943,-42.1043"/>
<polygon fill="black" stroke="black" points="613.047,-39.3068 602.965,-36.0493 608.815,-44.8828 613.047,-39.3068"/>
<text text-anchor="middle" x="654.5" y="-57.8" font-family="Times New Roman,serif" font-size="14.00">Yes</text>
</g>
<!-- 36 -->
<g id="node37" class="node"><title>36</title>
<polygon fill="none" stroke="red" points="768,-36 655,-36 655,-0 768,-0 768,-36"/>
<text text-anchor="middle" x="711.5" y="-14.3" font-family="Times New Roman,serif" font-size="14.00">val = 310425.770</text>
</g>
<!-- 17&#45;&gt;36 -->
<g id="edge36" class="edge"><title>17&#45;&gt;36</title>
<path fill="none" stroke="black" d="M696.345,-86.799C698.946,-75.1626 702.436,-59.5479 705.412,-46.2368"/>
<polygon fill="black" stroke="black" points="708.895,-46.6981 707.661,-36.1754 702.064,-45.1711 708.895,-46.6981"/>
<text text-anchor="middle" x="712.5" y="-57.8" font-family="Times New Roman,serif" font-size="14.00">No</text>
</g>
<!-- 37 -->
<g id="node38" class="node"><title>37</title>
<polygon fill="none" stroke="red" points="899,-36 786,-36 786,-0 899,-0 899,-36"/>
<text text-anchor="middle" x="842.5" y="-14.3" font-family="Times New Roman,serif" font-size="14.00">val = 310322.688</text>
</g>
<!-- 18&#45;&gt;37 -->
<g id="edge37" class="edge"><title>18&#45;&gt;37</title>
<path fill="none" stroke="black" d="M913.114,-87.2067C900.062,-74.5994 882.005,-57.1579 867.418,-43.0683"/>
<polygon fill="black" stroke="black" points="869.775,-40.4793 860.151,-36.0493 864.912,-45.5142 869.775,-40.4793"/>
<text text-anchor="middle" x="903.5" y="-57.8" font-family="Times New Roman,serif" font-size="14.00">Yes</text>
</g>
<!-- 38 -->
<g id="node39" class="node"><title>38</title>
<polygon fill="none" stroke="red" points="1030,-36 917,-36 917,-0 1030,-0 1030,-36"/>
<text text-anchor="middle" x="973.5" y="-14.3" font-family="Times New Roman,serif" font-size="14.00">val = 310322.688</text>
</g>
<!-- 18&#45;&gt;38 -->
<g id="edge38" class="edge"><title>18&#45;&gt;38</title>
<path fill="none" stroke="black" d="M939.202,-86.799C945.205,-74.9322 953.301,-58.9279 960.12,-45.4488"/>
<polygon fill="black" stroke="black" points="963.42,-46.6786 964.811,-36.1754 957.174,-43.5187 963.42,-46.6786"/>
<text text-anchor="middle" x="964.5" y="-57.8" font-family="Times New Roman,serif" font-size="14.00">No</text>
</g>
<!-- 39 -->
<g id="node40" class="node"><title>39</title>
<polygon fill="none" stroke="red" points="1161,-36 1048,-36 1048,-0 1161,-0 1161,-36"/>
<text text-anchor="middle" x="1104.5" y="-14.3" font-family="Times New Roman,serif" font-size="14.00">val = 309887.449</text>
</g>
<!-- 19&#45;&gt;39 -->
<g id="edge39" class="edge"><title>19&#45;&gt;39</title>
<path fill="none" stroke="black" d="M1209.93,-87.4094C1189.82,-74.3579 1161.58,-56.0349 1139.39,-41.6364"/>
<polygon fill="black" stroke="black" points="1141.2,-38.6386 1130.9,-36.1315 1137.39,-44.5108 1141.2,-38.6386"/>
<text text-anchor="middle" x="1189.5" y="-57.8" font-family="Times New Roman,serif" font-size="14.00">Yes</text>
</g>
<!-- 40 -->
<g id="node41" class="node"><title>40</title>
<polygon fill="none" stroke="red" points="1292,-36 1179,-36 1179,-0 1292,-0 1292,-36"/>
<text text-anchor="middle" x="1235.5" y="-14.3" font-family="Times New Roman,serif" font-size="14.00">val = 309048.252</text>
</g>
<!-- 19&#45;&gt;40 -->
<g id="edge40" class="edge"><title>19&#45;&gt;40</title>
<path fill="none" stroke="black" d="M1235.5,-86.799C1235.5,-75.1626 1235.5,-59.5479 1235.5,-46.2368"/>
<polygon fill="black" stroke="black" points="1239,-46.1754 1235.5,-36.1754 1232,-46.1755 1239,-46.1754"/>
<text text-anchor="middle" x="1244.5" y="-57.8" font-family="Times New Roman,serif" font-size="14.00">No</text>
</g>
<!-- 41 -->
<g id="node42" class="node"><title>41</title>
<polygon fill="none" stroke="red" points="1423,-36 1310,-36 1310,-0 1423,-0 1423,-36"/>
<text text-anchor="middle" x="1366.5" y="-14.3" font-family="Times New Roman,serif" font-size="14.00">val = 310754.198</text>
</g>
<!-- 20&#45;&gt;41 -->
<g id="edge41" class="edge"><title>20&#45;&gt;41</title>
<path fill="none" stroke="black" d="M1452.36,-87.2067C1436.2,-74.3681 1413.73,-56.5162 1395.83,-42.2962"/>
<polygon fill="black" stroke="black" points="1397.97,-39.529 1387.96,-36.0493 1393.62,-45.01 1397.97,-39.529"/>
<text text-anchor="middle" x="1437.5" y="-57.8" font-family="Times New Roman,serif" font-size="14.00">Yes</text>
</g>
<!-- 42 -->
<g id="node43" class="node"><title>42</title>
<polygon fill="none" stroke="red" points="1554,-36 1441,-36 1441,-0 1554,-0 1554,-36"/>
<text text-anchor="middle" x="1497.5" y="-14.3" font-family="Times New Roman,serif" font-size="14.00">val = 312248.957</text>
</g>
<!-- 20&#45;&gt;42 -->
<g id="edge42" class="edge"><title>20&#45;&gt;42</title>
<path fill="none" stroke="black" d="M1478.36,-86.799C1481.67,-75.0474 1486.14,-59.2383 1489.92,-45.8421"/>
<polygon fill="black" stroke="black" points="1493.3,-46.7503 1492.65,-36.1754 1486.56,-44.8481 1493.3,-46.7503"/>
<text text-anchor="middle" x="1496.5" y="-57.8" font-family="Times New Roman,serif" font-size="14.00">No</text>
</g>
<!-- 43 -->
<g id="node44" class="node"><title>43</title>
<polygon fill="none" stroke="red" points="1685,-36 1572,-36 1572,-0 1685,-0 1685,-36"/>
<text text-anchor="middle" x="1628.5" y="-14.3" font-family="Times New Roman,serif" font-size="14.00">val = 310322.688</text>
</g>
<!-- 21&#45;&gt;43 -->
<g id="edge43" class="edge"><title>21&#45;&gt;43</title>
<path fill="none" stroke="black" d="M1699.11,-87.2067C1686.06,-74.5994 1668,-57.1579 1653.42,-43.0683"/>
<polygon fill="black" stroke="black" points="1655.78,-40.4793 1646.15,-36.0493 1650.91,-45.5142 1655.78,-40.4793"/>
<text text-anchor="middle" x="1689.5" y="-57.8" font-family="Times New Roman,serif" font-size="14.00">Yes</text>
</g>
<!-- 44 -->
<g id="node45" class="node"><title>44</title>
<polygon fill="none" stroke="red" points="1816,-36 1703,-36 1703,-0 1816,-0 1816,-36"/>
<text text-anchor="middle" x="1759.5" y="-14.3" font-family="Times New Roman,serif" font-size="14.00">val = 310322.688</text>
</g>
<!-- 21&#45;&gt;44 -->
<g id="edge44" class="edge"><title>21&#45;&gt;44</title>
<path fill="none" stroke="black" d="M1725.2,-86.799C1731.2,-74.9322 1739.3,-58.9279 1746.12,-45.4488"/>
<polygon fill="black" stroke="black" points="1749.42,-46.6786 1750.81,-36.1754 1743.17,-43.5187 1749.42,-46.6786"/>
<text text-anchor="middle" x="1750.5" y="-57.8" font-family="Times New Roman,serif" font-size="14.00">No</text>
</g>
<!-- 45 -->
<g id="node46" class="node"><title>45</title>
<polygon fill="none" stroke="red" points="1947,-36 1834,-36 1834,-0 1947,-0 1947,-36"/>
<text text-anchor="middle" x="1890.5" y="-14.3" font-family="Times New Roman,serif" font-size="14.00">val = 310322.688</text>
</g>
<!-- 22&#45;&gt;45 -->
<g id="edge45" class="edge"><title>22&#45;&gt;45</title>
<path fill="none" stroke="black" d="M1941.55,-86.799C1932.35,-74.5865 1919.86,-57.9921 1909.53,-44.2776"/>
<polygon fill="black" stroke="black" points="1912.24,-42.0589 1903.43,-36.1754 1906.65,-46.2694 1912.24,-42.0589"/>
<text text-anchor="middle" x="1937.5" y="-57.8" font-family="Times New Roman,serif" font-size="14.00">Yes</text>
</g>
<!-- 46 -->
<g id="node47" class="node"><title>46</title>
<polygon fill="none" stroke="red" points="2078,-36 1965,-36 1965,-0 2078,-0 2078,-36"/>
<text text-anchor="middle" x="2021.5" y="-14.3" font-family="Times New Roman,serif" font-size="14.00">val = 310322.688</text>
</g>
<!-- 22&#45;&gt;46 -->
<g id="edge46" class="edge"><title>22&#45;&gt;46</title>
<path fill="none" stroke="black" d="M1968.06,-86.799C1977.68,-74.5865 1990.77,-57.9921 2001.58,-44.2776"/>
<polygon fill="black" stroke="black" points="2004.52,-46.1957 2007.96,-36.1754 1999.02,-41.8623 2004.52,-46.1957"/>
<text text-anchor="middle" x="2001.5" y="-57.8" font-family="Times New Roman,serif" font-size="14.00">No</text>
</g>
<!-- 47 -->
<g id="node48" class="node"><title>47</title>
<polygon fill="none" stroke="red" points="2209,-36 2096,-36 2096,-0 2209,-0 2209,-36"/>
<text text-anchor="middle" x="2152.5" y="-14.3" font-family="Times New Roman,serif" font-size="14.00">val = 310704.342</text>
</g>
<!-- 23&#45;&gt;47 -->
<g id="edge47" class="edge"><title>23&#45;&gt;47</title>
<path fill="none" stroke="black" d="M2255.52,-87.4094C2235.95,-74.4157 2208.51,-56.197 2186.88,-41.8278"/>
<polygon fill="black" stroke="black" points="2188.56,-38.7478 2178.3,-36.1315 2184.69,-44.5792 2188.56,-38.7478"/>
<text text-anchor="middle" x="2235.5" y="-57.8" font-family="Times New Roman,serif" font-size="14.00">Yes</text>
</g>
<!-- 48 -->
<g id="node49" class="node"><title>48</title>
<polygon fill="none" stroke="red" points="2340,-36 2227,-36 2227,-0 2340,-0 2340,-36"/>
<text text-anchor="middle" x="2283.5" y="-14.3" font-family="Times New Roman,serif" font-size="14.00">val = 311125.128</text>
</g>
<!-- 23&#45;&gt;48 -->
<g id="edge48" class="edge"><title>23&#45;&gt;48</title>
<path fill="none" stroke="black" d="M2281.11,-86.799C2281.52,-75.1626 2282.07,-59.5479 2282.54,-46.2368"/>
<polygon fill="black" stroke="black" points="2286.04,-46.2927 2282.89,-36.1754 2279.04,-46.0457 2286.04,-46.2927"/>
<text text-anchor="middle" x="2291.5" y="-57.8" font-family="Times New Roman,serif" font-size="14.00">No</text>
</g>
<!-- 49 -->
<g id="node50" class="node"><title>49</title>
<polygon fill="none" stroke="red" points="2471,-36 2358,-36 2358,-0 2471,-0 2471,-36"/>
<text text-anchor="middle" x="2414.5" y="-14.3" font-family="Times New Roman,serif" font-size="14.00">val = 310322.688</text>
</g>
<!-- 24&#45;&gt;49 -->
<g id="edge49" class="edge"><title>24&#45;&gt;49</title>
<path fill="none" stroke="black" d="M2497.95,-87.2067C2482.39,-74.4838 2460.8,-56.8374 2443.47,-42.6814"/>
<polygon fill="black" stroke="black" points="2445.32,-39.6677 2435.36,-36.0493 2440.89,-45.0877 2445.32,-39.6677"/>
<text text-anchor="middle" x="2484.5" y="-57.8" font-family="Times New Roman,serif" font-size="14.00">Yes</text>
</g>
<!-- 50 -->
<g id="node51" class="node"><title>50</title>
<polygon fill="none" stroke="red" points="2602,-36 2489,-36 2489,-0 2602,-0 2602,-36"/>
<text text-anchor="middle" x="2545.5" y="-14.3" font-family="Times New Roman,serif" font-size="14.00">val = 310322.688</text>
</g>
<!-- 24&#45;&gt;50 -->
<g id="edge50" class="edge"><title>24&#45;&gt;50</title>
<path fill="none" stroke="black" d="M2523.96,-86.799C2527.7,-75.0474 2532.72,-59.2383 2536.97,-45.8421"/>
<polygon fill="black" stroke="black" points="2540.35,-46.7658 2540.04,-36.1754 2533.68,-44.6466 2540.35,-46.7658"/>
<text text-anchor="middle" x="2543.5" y="-57.8" font-family="Times New Roman,serif" font-size="14.00">No</text>
</g>
<!-- 51 -->
<g id="node52" class="node"><title>51</title>
<polygon fill="none" stroke="red" points="2733,-36 2620,-36 2620,-0 2733,-0 2733,-36"/>
<text text-anchor="middle" x="2676.5" y="-14.3" font-family="Times New Roman,serif" font-size="14.00">val = 310322.688</text>
</g>
<!-- 25&#45;&gt;51 -->
<g id="edge51" class="edge"><title>25&#45;&gt;51</title>
<path fill="none" stroke="black" d="M2742.7,-86.799C2730.55,-74.3561 2713.96,-57.3644 2700.43,-43.5044"/>
<polygon fill="black" stroke="black" points="2702.76,-40.885 2693.27,-36.1754 2697.75,-45.7755 2702.76,-40.885"/>
<text text-anchor="middle" x="2734.5" y="-57.8" font-family="Times New Roman,serif" font-size="14.00">Yes</text>
</g>
<!-- 52 -->
<g id="node53" class="node"><title>52</title>
<polygon fill="none" stroke="red" points="2864,-36 2751,-36 2751,-0 2864,-0 2864,-36"/>
<text text-anchor="middle" x="2807.5" y="-14.3" font-family="Times New Roman,serif" font-size="14.00">val = 310536.447</text>
</g>
<!-- 25&#45;&gt;52 -->
<g id="edge52" class="edge"><title>25&#45;&gt;52</title>
<path fill="none" stroke="black" d="M2769.21,-86.799C2775.98,-74.8169 2785.13,-58.6168 2792.79,-45.0569"/>
<polygon fill="black" stroke="black" points="2795.93,-46.604 2797.8,-36.1754 2789.84,-43.1619 2795.93,-46.604"/>
<text text-anchor="middle" x="2795.5" y="-57.8" font-family="Times New Roman,serif" font-size="14.00">No</text>
</g>
<!-- 53 -->
<g id="node54" class="node"><title>53</title>
<polygon fill="none" stroke="red" points="2995,-36 2882,-36 2882,-0 2995,-0 2995,-36"/>
<text text-anchor="middle" x="2938.5" y="-14.3" font-family="Times New Roman,serif" font-size="14.00">val = 310322.688</text>
</g>
<!-- 26&#45;&gt;53 -->
<g id="edge53" class="edge"><title>26&#45;&gt;53</title>
<path fill="none" stroke="black" d="M2985.56,-86.799C2977.16,-74.7017 2965.78,-58.3049 2956.32,-44.6665"/>
<polygon fill="black" stroke="black" points="2959,-42.3946 2950.42,-36.1754 2953.25,-46.3862 2959,-42.3946"/>
<text text-anchor="middle" x="2983.5" y="-57.8" font-family="Times New Roman,serif" font-size="14.00">Yes</text>
</g>
<!-- 54 -->
<g id="node55" class="node"><title>54</title>
<polygon fill="none" stroke="red" points="3126,-36 3013,-36 3013,-0 3126,-0 3126,-36"/>
<text text-anchor="middle" x="3069.5" y="-14.3" font-family="Times New Roman,serif" font-size="14.00">val = 310322.688</text>
</g>
<!-- 26&#45;&gt;54 -->
<g id="edge54" class="edge"><title>26&#45;&gt;54</title>
<path fill="none" stroke="black" d="M3012.07,-86.799C3022.51,-74.4713 3036.74,-57.6787 3048.42,-43.8902"/>
<polygon fill="black" stroke="black" points="3051.16,-46.0681 3054.95,-36.1754 3045.82,-41.5437 3051.16,-46.0681"/>
<text text-anchor="middle" x="3047.5" y="-57.8" font-family="Times New Roman,serif" font-size="14.00">No</text>
</g>
<!-- 55 -->
<g id="node56" class="node"><title>55</title>
<polygon fill="none" stroke="red" points="3257,-36 3144,-36 3144,-0 3257,-0 3257,-36"/>
<text text-anchor="middle" x="3200.5" y="-14.3" font-family="Times New Roman,serif" font-size="14.00">val = 309593.002</text>
</g>
<!-- 27&#45;&gt;55 -->
<g id="edge55" class="edge"><title>27&#45;&gt;55</title>
<path fill="none" stroke="black" d="M3235.6,-86.799C3229.39,-74.8169 3221.01,-58.6168 3213.99,-45.0569"/>
<polygon fill="black" stroke="black" points="3217.1,-43.4472 3209.39,-36.1754 3210.88,-46.6651 3217.1,-43.4472"/>
<text text-anchor="middle" x="3236.5" y="-57.8" font-family="Times New Roman,serif" font-size="14.00">Yes</text>
</g>
<!-- 56 -->
<g id="node57" class="node"><title>56</title>
<polygon fill="none" stroke="red" points="3388,-36 3275,-36 3275,-0 3388,-0 3388,-36"/>
<text text-anchor="middle" x="3331.5" y="-14.3" font-family="Times New Roman,serif" font-size="14.00">val = 308685.231</text>
</g>
<!-- 27&#45;&gt;56 -->
<g id="edge56" class="edge"><title>27&#45;&gt;56</title>
<path fill="none" stroke="black" d="M3261.69,-87.2067C3274.59,-74.5994 3292.44,-57.1579 3306.87,-43.0683"/>
<polygon fill="black" stroke="black" points="3309.34,-45.5412 3314.05,-36.0493 3304.45,-40.5342 3309.34,-45.5412"/>
<text text-anchor="middle" x="3302.5" y="-57.8" font-family="Times New Roman,serif" font-size="14.00">No</text>
</g>
<!-- 57 -->
<g id="node58" class="node"><title>57</title>
<polygon fill="none" stroke="red" points="3519,-36 3406,-36 3406,-0 3519,-0 3519,-36"/>
<text text-anchor="middle" x="3462.5" y="-14.3" font-family="Times New Roman,serif" font-size="14.00">val = 310826.615</text>
</g>
<!-- 28&#45;&gt;57 -->
<g id="edge57" class="edge"><title>28&#45;&gt;57</title>
<path fill="none" stroke="black" d="M3478.45,-86.799C3475.71,-75.1626 3472.04,-59.5479 3468.91,-46.2368"/>
<polygon fill="black" stroke="black" points="3472.24,-45.1079 3466.54,-36.1754 3465.42,-46.7113 3472.24,-45.1079"/>
<text text-anchor="middle" x="3485.5" y="-57.8" font-family="Times New Roman,serif" font-size="14.00">Yes</text>
</g>
<!-- 58 -->
<g id="node59" class="node"><title>58</title>
<polygon fill="none" stroke="red" points="3650,-36 3537,-36 3537,-0 3650,-0 3650,-36"/>
<text text-anchor="middle" x="3593.5" y="-14.3" font-family="Times New Roman,serif" font-size="14.00">val = 312281.600</text>
</g>
<!-- 28&#45;&gt;58 -->
<g id="edge58" class="edge"><title>28&#45;&gt;58</title>
<path fill="none" stroke="black" d="M3504.43,-87.2067C3521.2,-74.3681 3544.51,-56.5162 3563.08,-42.2962"/>
<polygon fill="black" stroke="black" points="3565.42,-44.908 3571.24,-36.0493 3561.17,-39.3503 3565.42,-44.908"/>
<text text-anchor="middle" x="3554.5" y="-57.8" font-family="Times New Roman,serif" font-size="14.00">No</text>
</g>
<!-- 59 -->
<g id="node60" class="node"><title>59</title>
<polygon fill="none" stroke="red" points="3781,-36 3668,-36 3668,-0 3781,-0 3781,-36"/>
<text text-anchor="middle" x="3724.5" y="-14.3" font-family="Times New Roman,serif" font-size="14.00">val = 310322.688</text>
</g>
<!-- 29&#45;&gt;59 -->
<g id="edge59" class="edge"><title>29&#45;&gt;59</title>
<path fill="none" stroke="black" d="M3725.3,-86.799C3725.16,-75.1626 3724.98,-59.5479 3724.82,-46.2368"/>
<polygon fill="black" stroke="black" points="3728.32,-46.1335 3724.7,-36.1754 3721.32,-46.216 3728.32,-46.1335"/>
<text text-anchor="middle" x="3736.5" y="-57.8" font-family="Times New Roman,serif" font-size="14.00">Yes</text>
</g>
<!-- 60 -->
<g id="node61" class="node"><title>60</title>
<polygon fill="none" stroke="red" points="3912,-36 3799,-36 3799,-0 3912,-0 3912,-36"/>
<text text-anchor="middle" x="3855.5" y="-14.3" font-family="Times New Roman,serif" font-size="14.00">val = 308476.753</text>
</g>
<!-- 29&#45;&gt;60 -->
<g id="edge60" class="edge"><title>29&#45;&gt;60</title>
<path fill="none" stroke="black" d="M3750.87,-87.4094C3770.83,-74.3579 3798.86,-56.0349 3820.88,-41.6364"/>
<polygon fill="black" stroke="black" points="3822.84,-44.5334 3829.3,-36.1315 3819.01,-38.6746 3822.84,-44.5334"/>
<text text-anchor="middle" x="3807.5" y="-57.8" font-family="Times New Roman,serif" font-size="14.00">No</text>
</g>
<!-- 61 -->
<g id="node62" class="node"><title>61</title>
<polygon fill="none" stroke="red" points="4043,-36 3930,-36 3930,-0 4043,-0 4043,-36"/>
<text text-anchor="middle" x="3986.5" y="-14.3" font-family="Times New Roman,serif" font-size="14.00">val = 310322.688</text>
</g>
<!-- 30&#45;&gt;61 -->
<g id="edge61" class="edge"><title>30&#45;&gt;61</title>
<path fill="none" stroke="black" d="M3986.5,-86.799C3986.5,-75.1626 3986.5,-59.5479 3986.5,-46.2368"/>
<polygon fill="black" stroke="black" points="3990,-46.1754 3986.5,-36.1754 3983,-46.1755 3990,-46.1754"/>
<text text-anchor="middle" x="3997.5" y="-57.8" font-family="Times New Roman,serif" font-size="14.00">Yes</text>
</g>
<!-- 62 -->
<g id="node63" class="node"><title>62</title>
<polygon fill="none" stroke="red" points="4174,-36 4061,-36 4061,-0 4174,-0 4174,-36"/>
<text text-anchor="middle" x="4117.5" y="-14.3" font-family="Times New Roman,serif" font-size="14.00">val = 310322.688</text>
</g>
<!-- 30&#45;&gt;62 -->
<g id="edge62" class="edge"><title>30&#45;&gt;62</title>
<path fill="none" stroke="black" d="M4012.07,-87.4094C4032.18,-74.3579 4060.42,-56.0349 4082.61,-41.6364"/>
<polygon fill="black" stroke="black" points="4084.61,-44.5108 4091.1,-36.1315 4080.8,-38.6386 4084.61,-44.5108"/>
<text text-anchor="middle" x="4069.5" y="-57.8" font-family="Times New Roman,serif" font-size="14.00">No</text>
</g>
</g>
</svg>
